<?xml version="1.0" standalone="no"?>
<!DOCTYPE svg PUBLIC "-//W3C//DTD SVG 20010904//EN"
 "http://www.w3.org/TR/2001/REC-SVG-20010904/DTD/svg10.dtd">
<svg version="1.0" xmlns="http://www.w3.org/2000/svg"
 width="16.000000pt" height="16.000000pt" viewBox="0 0 16.000000 16.000000"
 preserveAspectRatio="xMidYMid meet">
<metadata>
Created by potrace 1.11, written by Peter Selinger 2001-2013
</metadata>
<g transform="translate(0.000000,16.000000) scale(0.008000,-0.008000)"
fill="#000000" stroke="none">
<path d="M0 1000 l0 -1000 1000 0 1000 0 0 1000 0 1000 -1000 0 -1000 0 0
-1000z m480 466 c0 -2 -22 -180 -50 -396 -27 -216 -50 -401 -50 -411 0 -17 9
-19 110 -19 72 0 110 4 110 11 0 6 23 190 50 409 28 219 50 401 50 404 0 3 22
6 50 6 49 0 49 -1 45 -27 -10 -55 -95 -752 -95 -777 l0 -26 109 0 108 0 6 28
c2 15 27 201 53 415 l49 387 42 0 c24 0 43 -3 43 -7 1 -5 -25 -216 -57 -470
l-58 -463 -362 0 c-200 0 -363 3 -363 8 0 15 112 908 116 920 3 10 94 19 94 8z
m1270 -35 c0 -69 -3 -71 -91 -71 -50 0 -79 -4 -79 -11 0 -6 -22 -190 -50 -409
-27 -219 -50 -401 -50 -404 0 -3 -21 -6 -46 -6 l-46 0 6 38 c13 77 96 748 96
770 0 21 -4 22 -81 22 l-81 0 6 31 c3 17 6 42 6 55 l0 24 205 0 205 0 0 -39z"/>
</g>
</svg>
